<svg width="52" height="48" viewBox="0 0 52 48" fill="none" xmlns="http://www.w3.org/2000/svg">
<rect x="12" y="30" width="6" height="10" fill="black"/>
<path d="M18.4609 7.38281H22.1524V36.92H20.3086V38.7695H18.4609V40.6133H11.0742V38.7695H9.23047V31.3789H11.0703V29.5391H12.918V27.6914H18.4609V30.9229V23.0762V7.38281Z" fill="black"/>
<rect x="13" y="28" width="6" height="2" fill="black"/>
<rect x="10" y="32" width="2" height="6" fill="black"/>
<path d="M21 7.38281H40.6172V11.082H21V7.38281Z" fill="black"/>
<path d="M36.9219 11H40.6133V35.0893H38.77V36.92H37H31.3765V35.0893H29.5351V33.2305H27.6901L27.69 29.5352H29.5351V27.69H31.3733V25.8516H33V24H36.9219L37 33.68V30.44L36.9219 24V11Z" fill="black"/>
<rect x="34" y="24" width="3" height="12" fill="black"/>
<rect x="37" y="35" width="1" height="1" fill="black"/>
<rect x="32" y="26" width="2" height="10" fill="black"/>
<rect x="30" y="28" width="2" height="7" fill="black"/>
<rect x="28" y="30" width="2" height="3" fill="black"/>
<rect x="10" y="32" width="1" height="1" fill="black"/>
<rect x="17" y="29" width="4" height="7" fill="black"/>
<rect x="18" y="36" width="2" height="2" fill="black"/>
</svg>
