<svg width="52" height="48" viewBox="0 0 52 48" fill="none" xmlns="http://www.w3.org/2000/svg">
<path d="M18 30H12V40H18V30Z" fill="white"/>
<path d="M18.4609 7.38281H22.1524V36.92H20.3086V38.7695H18.4609V40.6133H11.0742V38.7695H9.23047V31.3789H11.0703V29.5391H12.918V27.6914H18.4609V30.9229V23.0762V7.38281Z" fill="white"/>
<path d="M19 28H13V30H19V28Z" fill="white"/>
<path d="M12 32H10V38H12V32Z" fill="white"/>
<path d="M21 7.38281H40.6172V11.082H21V7.38281Z" fill="white"/>
<path d="M36.9219 11H40.6133V35.0893H38.77V36.92H37H31.3765V35.0893H29.5351V33.2305H27.6901L27.69 29.5352H29.5351V27.69H31.3733V25.8516H33V24H36.9219L37 33.68V30.44L36.9219 24V11Z" fill="white"/>
<path d="M37 24H34V36H37V24Z" fill="white"/>
<path d="M38 35H37V36H38V35Z" fill="white"/>
<path d="M34 26H32V36H34V26Z" fill="white"/>
<path d="M32 28H30V35H32V28Z" fill="white"/>
<path d="M30 30H28V33H30V30Z" fill="white"/>
<path d="M11 32H10V33H11V32Z" fill="white"/>
<path d="M21 29H17V36H21V29Z" fill="white"/>
<path d="M20 36H18V38H20V36Z" fill="white"/>
</svg>
