<svg width="156" height="156" viewBox="0 0 156 156" fill="none" xmlns="http://www.w3.org/2000/svg">
<path d="M104.035 93.7075L103.927 52.0727L62.2923 51.9646C61.8585 51.9059 61.4172 51.9411 60.9982 52.0677C60.5792 52.1944 60.1923 52.4096 59.8637 52.6988C59.5351 52.988 59.2725 53.3444 59.0936 53.7439C58.9147 54.1434 58.8238 54.5767 58.8269 55.0144C58.83 55.4521 58.9271 55.884 59.1117 56.281C59.2963 56.6779 59.564 57.0305 59.8967 57.315C60.2294 57.5994 60.6193 57.8091 61.0401 57.9297C61.4609 58.0504 61.9026 58.0792 62.3355 58.0143L93.5347 58.144L52.2023 99.4763C51.6293 100.049 51.3073 100.827 51.3073 101.637C51.3073 102.447 51.6293 103.225 52.2023 103.798C52.7753 104.371 53.5525 104.692 54.3629 104.692C55.1733 104.692 55.9505 104.371 56.5235 103.798L97.8559 62.4652L97.9855 93.6643C97.9884 94.4751 98.3132 95.2516 98.8886 95.8229C99.464 96.3943 100.243 96.7136 101.054 96.7107C101.864 96.7079 102.641 96.383 103.212 95.8077C103.784 95.2323 104.103 94.4535 104.1 93.6427L104.035 93.7075Z" fill="#8F8F8F"/>
</svg>
