<svg width="110" height="110" viewBox="0 0 110 110" fill="none" xmlns="http://www.w3.org/2000/svg">
<g clip-path="url(#clip0_2002_3)">
<path d="M47.6969 25.4835L18.333 55.0001L47.6969 84.5168C47.9621 84.8651 48.299 85.1523 48.6849 85.359C49.0707 85.5657 49.4965 85.6871 49.9333 85.715C50.3701 85.7429 50.8079 85.6765 51.2169 85.5205C51.6258 85.3645 51.9965 85.1225 52.3038 84.8108C52.6111 84.499 52.8479 84.1249 52.998 83.7137C53.1482 83.3026 53.2082 82.8639 53.1741 82.4275C53.14 81.9911 53.0125 81.5672 52.8003 81.1843C52.5881 80.8015 52.2961 80.4687 51.9441 80.2085L29.9747 58.0557H88.4275C89.2378 58.0557 90.015 57.7338 90.5881 57.1608C91.1611 56.5877 91.483 55.8105 91.483 55.0001C91.483 54.1898 91.1611 53.4126 90.5881 52.8395C90.015 52.2665 89.2378 51.9446 88.4275 51.9446L29.9747 51.9446L51.9441 29.7918C52.5154 29.2164 52.8348 28.4377 52.8319 27.6268C52.8291 26.816 52.5042 26.0395 51.9288 25.4682C51.3535 24.8969 50.5747 24.5775 49.7639 24.5804C48.953 24.5833 48.1766 24.9081 47.6052 25.4835H47.6969Z" fill="black"/>
</g>
<defs>
<clipPath id="clip0_2002_3">
<rect width="110" height="110" fill="white" transform="matrix(0 -1 1 0 0 110)"/>
</clipPath>
</defs>
</svg>
