<svg width="32" height="38" viewBox="0 0 32 38" fill="none" xmlns="http://www.w3.org/2000/svg">
<path d="M30 4.17981V30.9994C30 33.7594 27.76 35.9994 25.0001 35.9994H4.18036C4.59038 37.1593 5.70036 37.9993 7.00033 37.9993H29C30.65 37.9993 32 36.6493 32 34.9994V6.99978C32 5.69981 31.16 4.58978 30 4.17981Z" fill="#E53329"/>
<path d="M14.87 10.9997C15.4223 10.9997 15.87 10.552 15.87 9.99974C15.87 9.44746 15.4223 8.99976 14.87 8.99976C14.3177 8.99976 13.87 9.44746 13.87 9.99974C13.87 10.552 14.3177 10.9997 14.87 10.9997Z" fill="#E53329"/>
<path d="M9.00041 15.9997C9.55269 15.9997 10.0004 15.552 10.0004 14.9997C10.0004 14.4475 9.55269 13.9998 9.00041 13.9998C8.44814 13.9998 8.00043 14.4475 8.00043 14.9997C8.00043 15.552 8.44814 15.9997 9.00041 15.9997Z" fill="#E53329"/>
<path d="M27.9996 30.9996V2.99996C27.9996 1.34568 26.6539 0 24.9996 0H2.99996C1.34568 0 0 1.34568 0 2.99996V30.9996C0 32.6538 1.34568 33.9995 2.99996 33.9995H24.9996C26.6539 33.9995 27.9996 32.6538 27.9996 30.9996ZM4.99993 3.99994H6.9999C7.55214 3.99994 7.99989 4.44769 7.99989 4.99993C7.99989 5.55217 7.55214 5.99992 6.9999 5.99992H4.99993C4.44769 5.99992 3.99994 5.55217 3.99994 4.99993C3.99994 4.44769 4.44769 3.99994 4.99993 3.99994ZM4.99993 7.99989H6.9999C7.55214 7.99989 7.99989 8.44763 7.99989 8.99987C7.99989 9.55212 7.55214 9.99986 6.9999 9.99986H4.99993C4.44769 9.99986 3.99994 9.55212 3.99994 8.99987C3.99994 8.44763 4.44769 7.99989 4.99993 7.99989ZM16.9998 29.9996H4.99993C4.44769 29.9996 3.99994 29.5518 3.99994 28.9996C3.99994 28.4474 4.44769 27.9996 4.99993 27.9996H16.9998C17.5525 27.9996 17.9997 28.4474 17.9997 28.9996C17.9997 29.5518 17.5525 29.9996 16.9998 29.9996ZM16.9998 25.9996H4.99993C4.44769 25.9996 3.99994 25.5519 3.99994 24.9996C3.99994 24.4474 4.44769 23.9997 4.99993 23.9997H16.9998C17.5525 23.9997 17.9997 24.4474 17.9997 24.9996C17.9997 25.5519 17.5525 25.9996 16.9998 25.9996ZM16.9998 21.9997H4.99993C4.44769 21.9997 3.99994 21.5519 3.99994 20.9997C3.99994 20.4475 4.44769 19.9997 4.99993 19.9997H16.9998C17.5525 19.9997 17.9997 20.4475 17.9997 20.9997C17.9997 21.5519 17.5525 21.9997 16.9998 21.9997ZM22.9997 29.9996H20.9997C20.447 29.9996 19.9997 29.5518 19.9997 28.9996C19.9997 28.4474 20.447 27.9996 20.9997 27.9996H22.9997C23.5524 27.9996 23.9997 28.4474 23.9997 28.9996C23.9997 29.5518 23.5524 29.9996 22.9997 29.9996ZM22.9997 25.9996H20.9997C20.447 25.9996 19.9997 25.5519 19.9997 24.9996C19.9997 24.4474 20.447 23.9997 20.9997 23.9997H22.9997C23.5524 23.9997 23.9997 24.4474 23.9997 24.9996C23.9997 25.5519 23.5524 25.9996 22.9997 25.9996ZM22.9997 21.9997H20.9997C20.447 21.9997 19.9997 21.5519 19.9997 20.9997C19.9997 20.4475 20.447 19.9997 20.9997 19.9997H22.9997C23.5524 19.9997 23.9997 20.4475 23.9997 20.9997C23.9997 21.5519 23.5524 21.9997 22.9997 21.9997ZM23.9997 10.9998C23.9997 11.5521 23.5524 11.9998 22.9997 11.9998C22.447 11.9998 21.9997 11.5521 21.9997 10.9998V10.4139L19.7068 12.7069C19.3874 13.0262 18.8908 13.0908 18.5007 12.8665L17.0584 12.0367C16.5104 12.6255 15.7354 12.9998 14.8694 12.9998C14.3427 12.9998 13.8547 12.8516 13.424 12.6122L11.8035 13.9608C11.9244 14.2859 11.9998 14.6332 11.9998 14.9998C11.9998 16.6541 10.6542 17.9997 8.99987 17.9997C7.69795 17.9997 6.59836 17.1613 6.18424 15.9998H4.99993C4.44769 15.9998 3.99994 15.552 3.99994 14.9998C3.99994 14.4475 4.44769 13.9998 4.99993 13.9998H6.18418C6.5983 12.8383 7.69795 11.9998 8.99987 11.9998C9.55663 11.9998 10.0721 12.1624 10.5194 12.4277L12.0911 11.1198C11.9508 10.7731 11.8695 10.3963 11.8695 9.99986C11.8695 8.34558 13.2151 6.9999 14.8694 6.9999C16.5237 6.9999 17.8689 8.34558 17.8689 9.99986C17.8689 10.0632 17.8541 10.1225 17.8502 10.185L18.8347 10.7513L20.5859 8.99987H19.9997C19.447 8.99987 18.9997 8.55213 18.9997 7.99989C18.9997 7.44765 19.447 6.9999 19.9997 6.9999H22.9997C23.5524 6.9999 23.9997 7.44765 23.9997 7.99989V10.9998Z" fill="#E53329"/>
</svg>
