<svg width="110" height="110" viewBox="0 0 110 110" fill="none" xmlns="http://www.w3.org/2000/svg">
<g clip-path="url(#clip0_2002_3)">
<path d="M62.3031 84.5165L91.667 54.9999L62.3031 25.4832C62.0379 25.1349 61.701 24.8477 61.3151 24.641C60.9293 24.4343 60.5035 24.3129 60.0667 24.285C59.6299 24.2571 59.1921 24.3235 58.7831 24.4795C58.3742 24.6355 58.0035 24.8775 57.6962 25.1892C57.3889 25.501 57.1521 25.8751 57.002 26.2863C56.8518 26.6974 56.7918 27.1361 56.8259 27.5725C56.86 28.0089 56.9875 28.4328 57.1997 28.8157C57.4119 29.1985 57.7039 29.5313 58.0559 29.7915L80.0253 51.9443H21.5725C20.7622 51.9443 19.985 52.2662 19.4119 52.8392C18.8389 53.4123 18.517 54.1895 18.517 54.9999C18.517 55.8102 18.8389 56.5874 19.4119 57.1605C19.985 57.7335 20.7622 58.0554 21.5725 58.0554L80.0253 58.0554L58.0559 80.2082C57.4846 80.7836 57.1652 81.5623 57.1681 82.3732C57.1709 83.184 57.4958 83.9605 58.0712 84.5318C58.6465 85.1031 59.4253 85.4225 60.2361 85.4196C61.047 85.4167 61.8234 85.0919 62.3948 84.5165H62.3031Z" fill="black"/>
</g>
<defs>
<clipPath id="clip0_2002_3">
<rect width="110" height="110" fill="white" transform="matrix(0 1 -1 0 110 0)"/>
</clipPath>
</defs>
</svg>
