<svg width="73" height="73" viewBox="0 0 73 73" fill="none" xmlns="http://www.w3.org/2000/svg">
<g clip-path="url(#clip0_2006_13)">
<path d="M33.276 63.0142C34.1315 63.8686 35.2911 64.3485 36.5002 64.3485C37.7093 64.3485 38.8689 63.8686 39.7244 63.0142L56.9372 45.8105C57.7931 44.9546 58.2739 43.7938 58.2739 42.5833C58.2739 41.3729 57.7931 40.212 56.9372 39.3561C56.0813 38.5002 54.9204 38.0194 53.71 38.0194C52.4995 38.0194 51.3387 38.5002 50.4828 39.3561L41.0627 48.7731V13.6875C41.0627 12.4774 40.582 11.3169 39.7264 10.4613C38.8708 9.60568 37.7103 9.12498 36.5002 9.12498C35.2902 9.12498 34.1297 9.60568 33.274 10.4613C32.4184 11.3169 31.9377 12.4774 31.9377 13.6875V48.7731L22.5207 39.3561C22.0969 38.9323 21.5938 38.5961 21.0401 38.3668C20.4863 38.1374 19.8929 38.0194 19.2935 38.0194C18.6942 38.0194 18.1007 38.1374 17.5469 38.3668C16.9932 38.5961 16.4901 38.9323 16.0663 39.3561C15.6425 39.7799 15.3063 40.283 15.077 40.8368C14.8476 41.3905 14.7295 41.984 14.7295 42.5833C14.7295 43.1827 14.8476 43.7761 15.077 44.3299C15.3063 44.8836 15.6425 45.3867 16.0663 45.8105L33.276 63.0142Z" fill="black"/>
</g>
<defs>
<clipPath id="clip0_2006_13">
<rect width="73" height="73" fill="white" transform="matrix(-1 0 0 -1 73 73)"/>
</clipPath>
</defs>
</svg>
